<svg width="49" height="49" viewBox="0 0 49 49" fill="none" xmlns="http://www.w3.org/2000/svg">
<rect x="1" y="1" width="47" height="47" rx="7" fill="url(#paint0_linear_1120_7)" fill-opacity="0.11" stroke="url(#paint1_diamond_1120_7)" stroke-width="2"/>
<g clip-path="url(#clip0_1120_7)">
<path d="M11.4551 13C11.1882 13.0485 10.9957 13.2763 11.0001 13.54V35.14C11.0001 35.4374 11.2516 35.68 11.5601 35.68H20.5201V34.6H12.1201V14.08H37.8801V34.6H29.4801V35.68H38.4401C38.7485 35.68 39.0001 35.4374 39.0001 35.14V13.54C39.0001 13.2426 38.7485 13 38.4401 13H11.5601C11.5426 13 11.5251 13 11.5076 13C11.4901 13 11.4726 13 11.4551 13ZM16.6001 17.86V18.94H33.4001V17.86H16.6001ZM16.6001 20.56V21.64H33.4001V20.56H16.6001ZM16.6001 23.26V24.34H33.4001V23.26H16.6001ZM24.9476 25.9094C24.3613 25.9094 23.8954 26.2469 23.6001 26.7025C23.0532 26.5337 22.456 26.5844 22.0076 26.9556C21.5526 27.3311 21.4126 27.888 21.4826 28.4237C20.9488 28.6389 20.5354 29.0481 20.4151 29.5712C20.4151 29.5881 20.4151 29.605 20.4151 29.6219C20.3473 30.1429 20.5879 30.6196 20.9751 30.9887C20.7213 31.4781 20.6273 32.0455 20.9226 32.5412C21.0888 32.8218 21.3491 33.0053 21.6401 33.1319V39.46C21.6444 39.6498 21.7538 39.8249 21.9244 39.9177C22.0973 40.0127 22.3094 40.0105 22.4801 39.9156L25.0001 38.4644L27.5201 39.9156C27.6907 40.0105 27.9029 40.0127 28.0757 39.9177C28.2463 39.8249 28.3557 39.6498 28.3601 39.46V32.9125C28.4913 32.8197 28.6116 32.7248 28.7101 32.5919C28.7166 32.575 28.7232 32.5581 28.7276 32.5412C29.0141 32.0561 28.9485 31.5055 28.7101 31.0225C29.211 30.666 29.5413 30.1555 29.4801 29.6219C29.4757 29.605 29.4691 29.5881 29.4626 29.5712C29.3357 29.0249 28.9157 28.6284 28.3951 28.4069C28.4585 27.8774 28.3382 27.329 27.8876 26.9556C27.4216 26.5717 26.8266 26.5612 26.2951 26.7025C25.9976 26.2616 25.5513 25.9094 24.9476 25.9094ZM24.9476 26.9894C25.2035 26.9894 25.3894 27.137 25.4901 27.3944C25.5513 27.5462 25.6782 27.6644 25.8401 27.715C25.8488 27.7192 25.9232 27.7213 25.9451 27.7319C25.9735 27.7403 25.9516 27.7487 26.0151 27.7487C26.0676 27.7677 26.0698 27.7994 26.1726 27.7994C26.2644 27.7973 26.3541 27.7741 26.4351 27.7319C26.7326 27.5884 26.9404 27.5905 27.1526 27.7656C27.3735 27.9491 27.4194 28.1896 27.3276 28.4237C27.2619 28.6115 27.3101 28.8182 27.4501 28.9637C27.4719 29.0059 27.496 29.0755 27.5726 29.1494C27.6491 29.2253 27.7454 29.278 27.8526 29.3012C28.1654 29.3687 28.2857 29.4995 28.3601 29.7906C28.3819 30.0395 28.3404 30.1745 27.9401 30.3137C27.7191 30.3918 27.5726 30.5943 27.5726 30.82V31.0394C27.5748 31.1491 27.6119 31.2545 27.6776 31.3431C27.8373 31.5604 27.8504 31.8135 27.7651 31.9844C27.5923 32.1953 27.3429 32.3134 27.1351 32.2881C26.9666 32.2691 26.8004 32.3261 26.6801 32.44L26.5051 32.5919C26.4001 32.6952 26.3432 32.8366 26.3476 32.98C26.3476 33.2669 26.2316 33.4124 25.9801 33.5031C25.9735 33.5031 25.9691 33.5031 25.9626 33.5031C25.9626 33.4968 25.8707 33.52 25.7876 33.52C25.6388 33.52 25.4901 33.4525 25.3326 33.3006C25.2298 33.2036 25.0919 33.1509 24.9476 33.1487H24.6676C24.5188 33.1445 24.3723 33.1994 24.2651 33.3006C24.0398 33.5179 23.8538 33.5812 23.6351 33.5031C23.4207 33.4251 23.2676 33.1867 23.2676 32.98C23.2654 32.8323 23.2041 32.6931 23.0926 32.5919L22.9351 32.44C22.8104 32.3219 22.6354 32.2649 22.4626 32.2881C22.2416 32.3155 22.0119 32.2037 21.9026 32.0181C21.8019 31.8473 21.8216 31.5709 21.9901 31.3431C22.0557 31.2545 22.0929 31.1491 22.0951 31.0394V30.82C22.0929 30.6217 21.9791 30.4403 21.7976 30.3475C21.6488 30.2652 21.5285 29.9952 21.5351 29.7906C21.6116 29.4932 21.7516 29.3266 21.9901 29.3012C22.1148 29.2886 22.2329 29.2337 22.3226 29.1494C22.4079 29.0671 22.4429 28.9827 22.4626 28.9469C22.5851 28.7992 22.6179 28.6009 22.5501 28.4237C22.4582 28.1896 22.5041 27.9491 22.7251 27.7656C22.9394 27.5884 23.2326 27.5884 23.3901 27.6981C23.5607 27.812 23.7838 27.8247 23.9676 27.7319C23.9741 27.7319 23.9785 27.7319 23.9851 27.7319C24.0026 27.7277 24.0201 27.7213 24.0376 27.715C24.2279 27.6602 24.3744 27.5125 24.4226 27.3269C24.4663 27.1623 24.6916 26.9894 24.9476 26.9894ZM27.2401 33.6719V38.515L25.2801 37.3844C25.1073 37.2873 24.8929 37.2873 24.7201 37.3844L22.7601 38.515V34.2287C22.8913 34.349 23.0466 34.4481 23.2326 34.5156C23.7882 34.716 24.3219 34.522 24.7551 34.2287C24.7594 34.2266 24.7682 34.2309 24.7726 34.2287C24.7769 34.2309 24.7857 34.2266 24.7901 34.2287C25.0591 34.427 25.3829 34.6 25.7876 34.6C25.8882 34.6 26.1048 34.5979 26.3651 34.4987C26.3738 34.4903 26.3891 34.4861 26.4001 34.4819C26.4154 34.4755 26.4198 34.4903 26.4351 34.4819V34.465C26.8048 34.3089 27.0782 34.022 27.2401 33.6719Z" fill="url(#paint2_linear_1120_7)"/>
</g>
<defs>
<linearGradient id="paint0_linear_1120_7" x1="24.5" y1="0" x2="24.5" y2="49" gradientUnits="userSpaceOnUse">
<stop stop-color="#00E0FF"/>
<stop offset="1" stop-color="#00E0FF" stop-opacity="0.49"/>
</linearGradient>
<radialGradient id="paint1_diamond_1120_7" cx="0" cy="0" r="1" gradientUnits="userSpaceOnUse" gradientTransform="translate(24.5 24.5) rotate(135.468) scale(32.6806 55.0638)">
<stop stop-color="#49B9E8"/>
<stop offset="1" stop-color="#1F4D60" stop-opacity="0.43"/>
</radialGradient>
<linearGradient id="paint2_linear_1120_7" x1="42.5898" y1="13" x2="12.015" y2="41.1041" gradientUnits="userSpaceOnUse">
<stop offset="0.25" stop-color="#3B768F"/>
<stop offset="0.536458" stop-color="#3EC6FF"/>
<stop offset="0.817708" stop-color="#3B768F"/>
</linearGradient>
<clipPath id="clip0_1120_7">
<rect width="28" height="27" fill="white" transform="translate(11 13)"/>
</clipPath>
</defs>
</svg>
