<svg width="49" height="49" fill="none" xmlns="http://www.w3.org/2000/svg"><rect x="1" y="1" width="47" height="47" rx="7" fill="url(#a)" fill-opacity=".11" stroke="url(#b)" stroke-width="2"/><g clip-path="url(#c)"><path d="M11.455 13a.545.545 0 0 0-.455.54v21.6c0 .297.252.54.56.54h8.96V34.6h-8.4V14.08h25.76V34.6h-8.4v1.08h8.96c.309 0 .56-.243.56-.54v-21.6a.551.551 0 0 0-.56-.54H11.455Zm5.145 4.86v1.08h16.8v-1.08H16.6Zm0 2.7v1.08h16.8v-1.08H16.6Zm0 2.7v1.08h16.8v-1.08H16.6Zm8.348 2.65c-.587 0-1.053.337-1.348.793-.547-.17-1.144-.119-1.592.253-.455.375-.595.932-.525 1.468-.534.215-.948.624-1.068 1.147v.05c-.068.522.173.999.56 1.368-.254.49-.348 1.056-.052 1.552.166.28.426.464.717.59v6.329a.54.54 0 0 0 .284.458.578.578 0 0 0 .556-.002L25 38.464l2.52 1.452c.17.095.383.097.556.002a.54.54 0 0 0 .284-.458v-6.547c.131-.093.252-.188.35-.321l.018-.05c.286-.486.22-1.037-.018-1.52.501-.356.831-.866.77-1.4a.295.295 0 0 0-.017-.05c-.127-.547-.547-.944-1.068-1.165.064-.53-.057-1.078-.507-1.451-.466-.384-1.061-.395-1.593-.253-.297-.441-.744-.794-1.347-.794Zm0 1.08c.255 0 .441.147.542.404.061.152.188.27.35.321.009.004.083.006.105.017.029.008.007.017.07.017.053.019.055.05.158.05a.597.597 0 0 0 .262-.067c.298-.144.505-.142.718.034.22.183.266.424.175.658a.526.526 0 0 0 .122.54c.022.042.046.112.123.185a.566.566 0 0 0 .28.152c.312.068.433.199.507.49.022.248-.02.383-.42.523a.541.541 0 0 0-.367.506v.22a.52.52 0 0 0 .105.303c.16.217.172.47.087.641-.173.211-.422.33-.63.304a.57.57 0 0 0-.455.152l-.175.152a.524.524 0 0 0-.157.388c0 .287-.116.432-.368.523h-.017c0-.006-.092.017-.175.017-.15 0-.298-.068-.455-.22a.572.572 0 0 0-.385-.151h-.28a.566.566 0 0 0-.403.152c-.225.217-.411.28-.63.202a.593.593 0 0 1-.367-.523.531.531 0 0 0-.175-.388l-.158-.152a.578.578 0 0 0-.472-.152.581.581 0 0 1-.56-.27c-.101-.17-.081-.447.087-.675a.528.528 0 0 0 .105-.304v-.219a.539.539 0 0 0-.297-.473c-.15-.082-.27-.352-.263-.556.077-.298.217-.464.455-.49a.573.573 0 0 0 .333-.152c.085-.082.12-.166.14-.202a.523.523 0 0 0 .087-.523.549.549 0 0 1 .175-.658c.214-.178.508-.178.665-.068.17.114.394.127.578.034h.017a.362.362 0 0 0 .053-.017.552.552 0 0 0 .385-.388c.043-.165.269-.338.525-.338Zm2.292 6.682v4.843l-1.96-1.13a.575.575 0 0 0-.56 0l-1.96 1.13v-4.286c.131.12.287.22.473.287.555.2 1.089.006 1.522-.287.004-.002.013.002.018 0 .004.002.013-.002.017 0 .27.198.593.371.998.371.1 0 .317-.002.577-.101.009-.009.024-.013.035-.017.015-.007.02.008.035 0v-.017c.37-.156.643-.443.805-.793Z" fill="url(#d)"/></g><defs><linearGradient id="a" x1="24.5" y1="0" x2="24.5" y2="49" gradientUnits="userSpaceOnUse"><stop stop-color="#00E0FF"/><stop offset="1" stop-color="#00E0FF" stop-opacity=".49"/></linearGradient><linearGradient id="d" x1="42.59" y1="13" x2="12.015" y2="41.104" gradientUnits="userSpaceOnUse"><stop offset=".25" stop-color="#3B768F"/><stop offset=".536" stop-color="#3EC6FF"/><stop offset=".818" stop-color="#3B768F"/></linearGradient><radialGradient id="b" cx="0" cy="0" r="1" gradientUnits="userSpaceOnUse" gradientTransform="matrix(-23.29666 22.91915 -38.61666 -39.25272 24.5 24.5)"><stop stop-color="#49B9E8"/><stop offset="1" stop-color="#1F4D60" stop-opacity=".43"/></radialGradient><clipPath id="c"><path fill="#fff" transform="translate(11 13)" d="M0 0h28v27H0z"/></clipPath></defs></svg>