<svg width="25" height="24" fill="none" xmlns="http://www.w3.org/2000/svg"><path d="M12.5.5C8.215.5 4.621 3.516 3.719 7.531c.092-.01.187-.031.281-.031.256 0 .502.053.734.125C5.582 4.119 8.736 1.5 12.5 1.5c3.762 0 6.918 2.62 7.766 6.125.232-.072.476-.125.734-.125.094 0 .19.021.281.031C20.38 3.516 16.783.5 12.5.5ZM4 8.5c-.826 0-1.5.674-1.5 1.5v7.5c0 .826.674 1.5 1.5 1.5s1.5-.674 1.5-1.5V10c0-.826-.674-1.5-1.5-1.5Zm17 0c-.826 0-1.5.674-1.5 1.5v7.5c0 .826.674 1.5 1.5 1.5s1.5-.674 1.5-1.5V10c0-.826-.674-1.5-1.5-1.5ZM1.5 10.063C.598 10.787 0 12.146 0 13.75c0 1.604.598 2.963 1.5 3.688v-7.375Zm22 0v7.374c.902-.724 1.5-2.084 1.5-3.687 0-1.604-.598-2.963-1.5-3.688Zm-3.203 9.828C19.855 21.248 18.709 22 17 22h-.547c.033.162.047.328.047.5s-.014.338-.047.5H17c2.246 0 3.8-1.129 4.313-3.031-.106.013-.206.031-.313.031-.246 0-.479-.043-.703-.11ZM11.5 21c-.826 0-1.5.674-1.5 1.5s.674 1.5 1.5 1.5H14c.826 0 1.5-.674 1.5-1.5S14.826 21 14 21h-2.5Z" fill="#fff"/></svg>