<svg width="33" height="31" fill="none" xmlns="http://www.w3.org/2000/svg"><path d="M6.761.092c-.57-.044-1.202.112-1.786.5C4.46.932 3.35 1.765 2.312 2.71c-.517.47-1.011.96-1.393 1.44-.384.482-.72.922-.7 1.562.02.574.082 2.272 1.374 4.875 1.292 2.6 3.798 6.17 8.686 10.796 4.89 4.626 8.663 6.997 11.412 8.22 2.75 1.221 4.547 1.279 5.154 1.298.674.02 1.14-.298 1.648-.662.509-.363 1.026-.828 1.523-1.318.995-.981 1.876-2.031 2.235-2.518.818-1.102.682-2.404-.229-3.008-.572-.38-5.836-3.694-6.628-4.153-.803-.465-1.728-.255-2.555.158-.65.326-2.411 1.28-2.914 1.553-.379-.227-1.815-1.132-4.905-4.055-3.093-2.923-4.047-4.282-4.287-4.64.289-.476 1.295-2.133 1.642-2.759.433-.78.676-1.662.159-2.428a360.04 360.04 0 0 0-2.197-3.17C9.34 2.477 8.394 1.126 8.149.804V.8C7.828.382 7.328.136 6.76.092Zm-.136 1.43a.846.846 0 0 1 .324.101c.119.156 1.156 1.627 2.15 3.049a399.608 399.608 0 0 1 2.186 3.15c.029.04.07.506-.22 1.023v.002c-.326.588-1.85 3.107-1.85 3.107l-.21.352.216.35s1.136 1.813 4.75 5.231c3.616 3.418 5.532 4.495 5.532 4.495l.37.205.373-.2s2.656-1.437 3.284-1.75c.546-.27 1.037-.234 1.095-.201.512.298 6.198 3.871 6.547 4.104.012.008.321.451-.13 1.058h-.003c-.271.37-1.162 1.438-2.09 2.352-.465.456-.942.883-1.347 1.17-.404.287-.765.377-.708.38-.63-.02-2.02-.033-4.573-1.168-2.552-1.132-6.194-3.398-10.996-7.943-4.798-4.539-7.194-7.984-8.394-10.401C1.734 7.573 1.72 6.258 1.7 5.664c.003.055.098-.29.401-.672.304-.383.752-.837 1.235-1.277.968-.878 2.095-1.72 2.486-1.977v.003c.32-.214.6-.241.803-.22Z" fill="#4ABCEC"/></svg>