<svg width="30" height="37" fill="none" xmlns="http://www.w3.org/2000/svg"><path fill-rule="evenodd" clip-rule="evenodd" d="M24 27V10a9 9 0 1 0-18 0v17a9 9 0 1 0 18 0ZM15 0C9.477 0 5 4.477 5 10v17c0 5.523 4.477 10 10 10s10-4.477 10-10V10c0-5.523-4.477-10-10-10Z" fill="#4A8BEC"/><g filter="url(#a)"><path d="M20 11a5 5 0 1 1-10 0 5 5 0 0 1 10 0Z" fill="#4ABCEC"/></g><defs><filter id="a" x="0" y="0" width="30" height="30" filterUnits="userSpaceOnUse" color-interpolation-filters="sRGB"><feFlood flood-opacity="0" result="BackgroundImageFix"/><feColorMatrix in="SourceAlpha" values="0 0 0 0 0 0 0 0 0 0 0 0 0 0 0 0 0 0 127 0" result="hardAlpha"/><feOffset dy="4"/><feGaussianBlur stdDeviation="5"/><feComposite in2="hardAlpha" operator="out"/><feColorMatrix values="0 0 0 0 0.290196 0 0 0 0 0.849255 0 0 0 0 0.92549 0 0 0 0.75 0"/><feBlend in2="BackgroundImageFix" result="effect1_dropShadow_1120_8"/><feBlend in="SourceGraphic" in2="effect1_dropShadow_1120_8" result="shape"/></filter></defs></svg>